<?xml version="1.0" encoding="utf-8"?>
<svg version="1.1" xmlns:xlink="http://www.w3.org/1999/xlink" width="58px" height="74px" xmlns="http://www.w3.org/2000/svg">
  <defs>
    <pattern id="BGPattern" patternUnits="userSpaceOnUse" alignment="0 0" imageRepeat="None" />
    <mask fill="white" id="Clip14">
      <path d="M 57.614843750000006 53.500651041666664  C 57.87161458333333 55.92556423611111  58 58.50303819444444  58 61.23307291666667  C 58 64.73394097222223  57.055989583333336 67.73697916666667  55.16796875 70.2421875  C 53.27994791666667 72.74739583333333  51.00677083333334 74  48.3484375 74  L 9.6515625 74  C 6.993229166666667 74  4.720052083333334 72.74739583333333  2.8320312500000004 70.2421875  C 0.944010416666667 67.73697916666667  0 64.73394097222223  0 61.23307291666667  C 0 58.50303819444444  0.12838541666666697 55.92556423611111  0.38515625000000037 53.500651041666664  C 0.6419270833333337 51.07573784722221  1.1177083333333335 48.634765625  1.8125000000000004 46.177734375  C 2.5072916666666676 43.720703125  3.3908854166666673 41.616970486111114  4.46328125 39.866536458333336  C 5.535677083333335 38.11610243055555  6.95546875 36.68684895833333  8.72265625 35.57877604166667  C 10.489843749999999 34.470703125  12.521354166666669 33.91666666666667  14.817187500000001 33.91666666666667  C 18.77447916666667 38.02777777777777  23.50208333333334 40.083333333333336  29 40.083333333333336  C 34.497916666666676 40.083333333333336  39.22552083333334 38.02777777777777  43.1828125 33.91666666666667  C 45.47864583333334 33.91666666666667  47.510156249999994 34.470703125  49.27734375 35.57877604166667  C 51.044531250000006 36.68684895833333  52.464322916666674 38.11610243055555  53.536718750000006 39.866536458333336  C 54.60911458333334 41.616970486111114  55.49270833333333 43.720703125  56.1875 46.177734375  C 56.882291666666674 48.634765625  57.35807291666667 51.07573784722221  57.614843750000006 53.500651041666664  Z M 41.302343750000006 5.419921875  C 44.700781250000006 9.033203125  46.400000000000006 13.39322916666667  46.400000000000006 18.5  C 46.400000000000006 23.606770833333332  44.700781250000006 27.966796875  41.302343750000006 31.580078125  C 37.903906250000006 35.193359375  33.803124999999994 37  29 37  C 24.196875 37  20.09609375 35.193359375  16.69765625 31.580078125  C 13.299218750000001 27.966796875  11.600000000000001 23.606770833333332  11.600000000000001 18.5  C 11.600000000000001 13.39322916666667  13.299218750000001 9.033203125  16.69765625 5.419921875  C 20.09609375 1.806640625  24.196875 0  29 0  C 33.803124999999994 0  37.903906250000006 1.806640625  41.302343750000006 5.419921875  Z " fill-rule="evenodd" />
    </mask>
  </defs>
  <g transform="matrix(1 0 0 1 -1590 -95 )">
    <path d="M 57.614843750000006 53.500651041666664  C 57.87161458333333 55.92556423611111  58 58.50303819444444  58 61.23307291666667  C 58 64.73394097222223  57.055989583333336 67.73697916666667  55.16796875 70.2421875  C 53.27994791666667 72.74739583333333  51.00677083333334 74  48.3484375 74  L 9.6515625 74  C 6.993229166666667 74  4.720052083333334 72.74739583333333  2.8320312500000004 70.2421875  C 0.944010416666667 67.73697916666667  0 64.73394097222223  0 61.23307291666667  C 0 58.50303819444444  0.12838541666666697 55.92556423611111  0.38515625000000037 53.500651041666664  C 0.6419270833333337 51.07573784722221  1.1177083333333335 48.634765625  1.8125000000000004 46.177734375  C 2.5072916666666676 43.720703125  3.3908854166666673 41.616970486111114  4.46328125 39.866536458333336  C 5.535677083333335 38.11610243055555  6.95546875 36.68684895833333  8.72265625 35.57877604166667  C 10.489843749999999 34.470703125  12.521354166666669 33.91666666666667  14.817187500000001 33.91666666666667  C 18.77447916666667 38.02777777777777  23.50208333333334 40.083333333333336  29 40.083333333333336  C 34.497916666666676 40.083333333333336  39.22552083333334 38.02777777777777  43.1828125 33.91666666666667  C 45.47864583333334 33.91666666666667  47.510156249999994 34.470703125  49.27734375 35.57877604166667  C 51.044531250000006 36.68684895833333  52.464322916666674 38.11610243055555  53.536718750000006 39.866536458333336  C 54.60911458333334 41.616970486111114  55.49270833333333 43.720703125  56.1875 46.177734375  C 56.882291666666674 48.634765625  57.35807291666667 51.07573784722221  57.614843750000006 53.500651041666664  Z M 41.302343750000006 5.419921875  C 44.700781250000006 9.033203125  46.400000000000006 13.39322916666667  46.400000000000006 18.5  C 46.400000000000006 23.606770833333332  44.700781250000006 27.966796875  41.302343750000006 31.580078125  C 37.903906250000006 35.193359375  33.803124999999994 37  29 37  C 24.196875 37  20.09609375 35.193359375  16.69765625 31.580078125  C 13.299218750000001 27.966796875  11.600000000000001 23.606770833333332  11.600000000000001 18.5  C 11.600000000000001 13.39322916666667  13.299218750000001 9.033203125  16.69765625 5.419921875  C 20.09609375 1.806640625  24.196875 0  29 0  C 33.803124999999994 0  37.903906250000006 1.806640625  41.302343750000006 5.419921875  Z " fill-rule="nonzero" fill="rgba(1, 30, 65, 1)" stroke="none" transform="matrix(1 0 0 1 1590 95 )" class="fill" />
    <path d="M 57.614843750000006 53.500651041666664  C 57.87161458333333 55.92556423611111  58 58.50303819444444  58 61.23307291666667  C 58 64.73394097222223  57.055989583333336 67.73697916666667  55.16796875 70.2421875  C 53.27994791666667 72.74739583333333  51.00677083333334 74  48.3484375 74  L 9.6515625 74  C 6.993229166666667 74  4.720052083333334 72.74739583333333  2.8320312500000004 70.2421875  C 0.944010416666667 67.73697916666667  0 64.73394097222223  0 61.23307291666667  C 0 58.50303819444444  0.12838541666666697 55.92556423611111  0.38515625000000037 53.500651041666664  C 0.6419270833333337 51.07573784722221  1.1177083333333335 48.634765625  1.8125000000000004 46.177734375  C 2.5072916666666676 43.720703125  3.3908854166666673 41.616970486111114  4.46328125 39.866536458333336  C 5.535677083333335 38.11610243055555  6.95546875 36.68684895833333  8.72265625 35.57877604166667  C 10.489843749999999 34.470703125  12.521354166666669 33.91666666666667  14.817187500000001 33.91666666666667  C 18.77447916666667 38.02777777777777  23.50208333333334 40.083333333333336  29 40.083333333333336  C 34.497916666666676 40.083333333333336  39.22552083333334 38.02777777777777  43.1828125 33.91666666666667  C 45.47864583333334 33.91666666666667  47.510156249999994 34.470703125  49.27734375 35.57877604166667  C 51.044531250000006 36.68684895833333  52.464322916666674 38.11610243055555  53.536718750000006 39.866536458333336  C 54.60911458333334 41.616970486111114  55.49270833333333 43.720703125  56.1875 46.177734375  C 56.882291666666674 48.634765625  57.35807291666667 51.07573784722221  57.614843750000006 53.500651041666664  Z " stroke-width="0" stroke-dasharray="0" stroke="rgba(255, 255, 255, 0)" fill="none" transform="matrix(1 0 0 1 1590 95 )" class="stroke" mask="url(#Clip14)" />
    <path d="M 41.302343750000006 5.419921875  C 44.700781250000006 9.033203125  46.400000000000006 13.39322916666667  46.400000000000006 18.5  C 46.400000000000006 23.606770833333332  44.700781250000006 27.966796875  41.302343750000006 31.580078125  C 37.903906250000006 35.193359375  33.803124999999994 37  29 37  C 24.196875 37  20.09609375 35.193359375  16.69765625 31.580078125  C 13.299218750000001 27.966796875  11.600000000000001 23.606770833333332  11.600000000000001 18.5  C 11.600000000000001 13.39322916666667  13.299218750000001 9.033203125  16.69765625 5.419921875  C 20.09609375 1.806640625  24.196875 0  29 0  C 33.803124999999994 0  37.903906250000006 1.806640625  41.302343750000006 5.419921875  Z " stroke-width="0" stroke-dasharray="0" stroke="rgba(255, 255, 255, 0)" fill="none" transform="matrix(1 0 0 1 1590 95 )" class="stroke" mask="url(#Clip14)" />
  </g>
</svg>