<?xml version="1.0" encoding="utf-8"?>
<svg version="1.1" xmlns:xlink="http://www.w3.org/1999/xlink" width="50px" height="45px" xmlns="http://www.w3.org/2000/svg">
  <defs>
    <pattern id="BGPattern" patternUnits="userSpaceOnUse" alignment="0 0" imageRepeat="None" />
    <mask fill="white" id="Clip15">
      <path d="M 49.66796875 32.5341796875  C 49.889322916666664 34.00878906249999  50 35.576171875  50 37.236328125  C 50 39.365234375  49.18619791666667 41.19140625  47.55859375 42.71484375  C 45.930989583333336 44.23828125  43.97135416666667 45  41.6796875 45  L 8.3203125 45  C 6.028645833333333 45  4.069010416666667 44.23828125  2.4414062500000004 42.71484375  C 0.8138020833333336 41.19140625  0 39.365234375  0 37.236328125  C 0 35.576171875  0.11067708333333359 34.00878906249999  0.3320312500000003 32.5341796875  C 0.553385416666667 31.059570312499993  0.9635416666666669 29.5751953125  1.5625000000000004 28.0810546875  C 2.161458333333334 26.5869140625  2.923177083333334 25.3076171875  3.84765625 24.243164062500004  C 4.772135416666668 23.178710937499996  5.99609375 22.3095703125  7.51953125 21.6357421875  C 9.04296875 20.9619140625  10.794270833333334 20.625  12.773437500000002 20.625  C 16.184895833333336 23.124999999999996  20.26041666666667 24.375000000000004  25 24.375000000000004  C 29.739583333333343 24.375000000000004  33.81510416666667 23.124999999999996  37.2265625 20.625  C 39.20572916666667 20.625  40.95703125 20.9619140625  42.48046875 21.6357421875  C 44.00390625 22.3095703125  45.227864583333336 23.178710937499996  46.15234375 24.243164062500004  C 47.07682291666667 25.3076171875  47.838541666666664 26.5869140625  48.4375 28.0810546875  C 49.036458333333336 29.5751953125  49.446614583333336 31.059570312499993  49.66796875 32.5341796875  Z M 35.60546875 3.2958984375  C 38.53515625 5.4931640625  40 8.144531250000002  40 11.25  C 40 14.355468749999998  38.53515625 17.0068359375  35.60546875 19.2041015625  C 32.67578125 21.4013671875  29.140624999999996 22.5  25 22.5  C 20.859375 22.5  17.32421875 21.4013671875  14.39453125 19.2041015625  C 11.46484375 17.0068359375  10 14.355468749999998  10 11.25  C 10 8.144531250000002  11.46484375 5.4931640625  14.39453125 3.2958984375  C 17.32421875 1.0986328125  20.859375 0  25 0  C 29.140624999999996 0  32.67578125 1.0986328125  35.60546875 3.2958984375  Z " fill-rule="evenodd" />
    </mask>
  </defs>
  <g transform="matrix(1 0 0 1 -1399 -532 )">
    <path d="M 49.66796875 32.5341796875  C 49.889322916666664 34.00878906249999  50 35.576171875  50 37.236328125  C 50 39.365234375  49.18619791666667 41.19140625  47.55859375 42.71484375  C 45.930989583333336 44.23828125  43.97135416666667 45  41.6796875 45  L 8.3203125 45  C 6.028645833333333 45  4.069010416666667 44.23828125  2.4414062500000004 42.71484375  C 0.8138020833333336 41.19140625  0 39.365234375  0 37.236328125  C 0 35.576171875  0.11067708333333359 34.00878906249999  0.3320312500000003 32.5341796875  C 0.553385416666667 31.059570312499993  0.9635416666666669 29.5751953125  1.5625000000000004 28.0810546875  C 2.161458333333334 26.5869140625  2.923177083333334 25.3076171875  3.84765625 24.243164062500004  C 4.772135416666668 23.178710937499996  5.99609375 22.3095703125  7.51953125 21.6357421875  C 9.04296875 20.9619140625  10.794270833333334 20.625  12.773437500000002 20.625  C 16.184895833333336 23.124999999999996  20.26041666666667 24.375000000000004  25 24.375000000000004  C 29.739583333333343 24.375000000000004  33.81510416666667 23.124999999999996  37.2265625 20.625  C 39.20572916666667 20.625  40.95703125 20.9619140625  42.48046875 21.6357421875  C 44.00390625 22.3095703125  45.227864583333336 23.178710937499996  46.15234375 24.243164062500004  C 47.07682291666667 25.3076171875  47.838541666666664 26.5869140625  48.4375 28.0810546875  C 49.036458333333336 29.5751953125  49.446614583333336 31.059570312499993  49.66796875 32.5341796875  Z M 35.60546875 3.2958984375  C 38.53515625 5.4931640625  40 8.144531250000002  40 11.25  C 40 14.355468749999998  38.53515625 17.0068359375  35.60546875 19.2041015625  C 32.67578125 21.4013671875  29.140624999999996 22.5  25 22.5  C 20.859375 22.5  17.32421875 21.4013671875  14.39453125 19.2041015625  C 11.46484375 17.0068359375  10 14.355468749999998  10 11.25  C 10 8.144531250000002  11.46484375 5.4931640625  14.39453125 3.2958984375  C 17.32421875 1.0986328125  20.859375 0  25 0  C 29.140624999999996 0  32.67578125 1.0986328125  35.60546875 3.2958984375  Z " fill-rule="nonzero" fill="rgba(1, 30, 65, 1)" stroke="none" transform="matrix(1 0 0 1 1399 532 )" class="fill" />
    <path d="M 49.66796875 32.5341796875  C 49.889322916666664 34.00878906249999  50 35.576171875  50 37.236328125  C 50 39.365234375  49.18619791666667 41.19140625  47.55859375 42.71484375  C 45.930989583333336 44.23828125  43.97135416666667 45  41.6796875 45  L 8.3203125 45  C 6.028645833333333 45  4.069010416666667 44.23828125  2.4414062500000004 42.71484375  C 0.8138020833333336 41.19140625  0 39.365234375  0 37.236328125  C 0 35.576171875  0.11067708333333359 34.00878906249999  0.3320312500000003 32.5341796875  C 0.553385416666667 31.059570312499993  0.9635416666666669 29.5751953125  1.5625000000000004 28.0810546875  C 2.161458333333334 26.5869140625  2.923177083333334 25.3076171875  3.84765625 24.243164062500004  C 4.772135416666668 23.178710937499996  5.99609375 22.3095703125  7.51953125 21.6357421875  C 9.04296875 20.9619140625  10.794270833333334 20.625  12.773437500000002 20.625  C 16.184895833333336 23.124999999999996  20.26041666666667 24.375000000000004  25 24.375000000000004  C 29.739583333333343 24.375000000000004  33.81510416666667 23.124999999999996  37.2265625 20.625  C 39.20572916666667 20.625  40.95703125 20.9619140625  42.48046875 21.6357421875  C 44.00390625 22.3095703125  45.227864583333336 23.178710937499996  46.15234375 24.243164062500004  C 47.07682291666667 25.3076171875  47.838541666666664 26.5869140625  48.4375 28.0810546875  C 49.036458333333336 29.5751953125  49.446614583333336 31.059570312499993  49.66796875 32.5341796875  Z " stroke-width="0" stroke-dasharray="0" stroke="rgba(255, 255, 255, 0)" fill="none" transform="matrix(1 0 0 1 1399 532 )" class="stroke" mask="url(#Clip15)" />
    <path d="M 35.60546875 3.2958984375  C 38.53515625 5.4931640625  40 8.144531250000002  40 11.25  C 40 14.355468749999998  38.53515625 17.0068359375  35.60546875 19.2041015625  C 32.67578125 21.4013671875  29.140624999999996 22.5  25 22.5  C 20.859375 22.5  17.32421875 21.4013671875  14.39453125 19.2041015625  C 11.46484375 17.0068359375  10 14.355468749999998  10 11.25  C 10 8.144531250000002  11.46484375 5.4931640625  14.39453125 3.2958984375  C 17.32421875 1.0986328125  20.859375 0  25 0  C 29.140624999999996 0  32.67578125 1.0986328125  35.60546875 3.2958984375  Z " stroke-width="0" stroke-dasharray="0" stroke="rgba(255, 255, 255, 0)" fill="none" transform="matrix(1 0 0 1 1399 532 )" class="stroke" mask="url(#Clip15)" />
  </g>
</svg>