<?xml version="1.0" encoding="utf-8"?>
<svg version="1.1" xmlns:xlink="http://www.w3.org/1999/xlink" width="71px" height="70px" xmlns="http://www.w3.org/2000/svg">
  <defs>
    <pattern id="BGPattern" patternUnits="userSpaceOnUse" alignment="0 0" imageRepeat="None" />
    <mask fill="white" id="Clip16">
      <path d="M 43.86653645833333 43.24869791666667  C 46.177734375 40.97005208333333  47.33333333333333 38.22048611111111  47.33333333333333 35  C 47.33333333333333 31.779513888888882  46.177734375 29.029947916666664  43.86653645833333 26.751302083333336  C 41.55533854166667 24.47265625  38.766493055555564 23.333333333333336  35.5 23.333333333333336  C 32.23350694444444 23.333333333333336  29.444661458333336 24.47265625  27.133463541666664 26.751302083333336  C 24.822265625 29.029947916666664  23.666666666666664 31.779513888888882  23.666666666666664 35  C 23.666666666666664 38.22048611111111  24.822265625 40.97005208333333  27.133463541666664 43.24869791666667  C 29.444661458333336 45.52734375  32.23350694444444 46.66666666666667  35.5 46.66666666666667  C 38.766493055555564 46.66666666666667  41.55533854166667 45.52734375  43.86653645833333 43.24869791666667  Z M 70.63020833333333 28.961588541666664  C 70.87673611111111 29.280598958333336  71 29.637586805555554  71 30.032552083333336  L 71 40.14973958333333  C 71 40.51432291666667  70.87673611111111 40.86371527777778  70.63020833333333 41.19791666666667  C 70.38368055555556 41.53211805555555  70.07552083333333 41.729600694444436  69.70572916666667 41.79036458333333  L 61.154296875 43.06640625  C 60.568793402777786 44.70703125  59.96788194444446 46.08940972222222  59.3515625 47.21354166666667  C 60.430121527777786 48.73263888888889  62.07877604166667 50.82899305555555  64.29752604166667 53.502604166666664  C 64.60568576388889 53.8671875  64.759765625 54.24696180555556  64.759765625 54.641927083333336  C 64.759765625 55.036892361111114  64.62109375 55.38628472222222  64.34375 55.690104166666664  C 63.51171875 56.814236111111114  61.986328125 58.454861111111114  59.767578125 60.611979166666664  C 57.548828125 62.76909722222222  56.100477430555564 63.84765625  55.42252604166667 63.84765625  C 55.052734375 63.84765625  54.652126736111114 63.7109375  54.220703125 63.4375  L 47.841796875 58.515625  C 46.48589409722222 59.21440972222222  45.083767361111114 59.791666666666664  43.63541666666667 60.247395833333336  C 43.142361111111114 64.37934027777779  42.69552951388889 67.20486111111111  42.294921875 68.72395833333334  C 42.07921006944444 69.57465277777779  41.52452256944444 70  40.630859375 70  L 30.369140625 70  C 29.937717013888893 70  29.560221354166664 69.87087673611111  29.236653645833336 69.61263020833334  C 28.9130859375 69.35438368055556  28.73589409722223 69.02777777777779  28.705078125 68.6328125  L 27.410807291666664 60.247395833333336  C 25.900824652777782 59.76128472222222  24.514105902777782 59.19921875  23.250651041666664 58.561197916666664  L 16.733072916666668 63.4375  C 16.424913194444446 63.7109375  16.039713541666668 63.84765625  15.577473958333332 63.84765625  C 15.146050347222223 63.84765625  14.760850694444446 63.68055555555556  14.421875 63.346354166666664  C 10.5390625 59.8828125  7.996744791666666 57.330729166666664  6.794921875 55.690104166666664  C 6.5792100694444455 55.38628472222222  6.471354166666666 55.036892361111114  6.471354166666666 54.641927083333336  C 6.471354166666666 54.27734375  6.594618055555557 53.927951388888886  6.841145833333334 53.59375  C 7.303385416666666 52.955729166666664  8.089192708333334 51.94552951388889  9.198567708333332 50.56315104166667  C 10.307942708333332 49.180772569444436  11.139973958333332 48.109809027777764  11.694661458333332 47.35026041666667  C 10.862630208333332 45.831163194444436  10.230902777777779 44.327256944444436  9.799479166666668 42.83854166666667  L 1.3404947916666665 41.60807291666667  C 0.9398871527777779 41.54730902777778  0.6163194444444444 41.357421875  0.36979166666666663 41.03841145833333  C 0.12326388888888888 40.71940104166667  0 40.362413194444436  0 39.96744791666667  L 0 29.850260416666664  C 0 29.485677083333336  0.12326388888888888 29.136284722222218  0.36979166666666663 28.802083333333336  C 0.6163194444444444 28.467881944444446  0.9090711805555557 28.270399305555554  1.248046875 28.209635416666664  L 9.845703125 26.93359375  C 10.27712673611111 25.536024305555554  10.878038194444445 24.13845486111111  11.6484375 22.740885416666664  C 10.41579861111111 21.009114583333336  8.767144097222223 18.912760416666664  6.702473958333334 16.451822916666664  C 6.394314236111112 16.087239583333336  6.240234375 15.72265625  6.240234375 15.358072916666664  C 6.240234375 15.054253472222218  6.37890625 14.704861111111102  6.65625 14.309895833333336  C 7.457465277777778 13.216145833333336  8.975151909722223 11.583116319444438  11.209309895833332 9.410807291666664  C 13.443467881944446 7.238498263888883  14.899522569444446 6.15234375  15.577473958333332 6.15234375  C 15.978081597222223 6.15234375  16.378689236111114 6.304253472222219  16.779296875 6.608072916666664  L 23.158203125 11.484375  C 24.514105902777782 10.785590277777773  25.916232638888893 10.208333333333336  27.364583333333336 9.752604166666664  C 27.857638888888893 5.620659722222219  28.30447048611111 2.795138888888883  28.705078125 1.276041666666664  C 28.920789930555557 0.42534722222221877  29.475477430555557 0  30.369140625 0  L 40.630859375 0  C 41.062282986111114 0  41.43977864583333 0.12912326388888284  41.76334635416667 0.3873697916666641  C 42.0869140625 0.6456163194444375  42.26410590277778 0.9722222222222188  42.294921875 1.3671875  L 43.58919270833333 9.752604166666664  C 45.09917534722222 10.238715277777773  46.48589409722222 10.80078125  47.74934895833333 11.438802083333336  L 54.31315104166667 6.5625  C 54.59049479166667 6.2890625  54.96028645833333 6.15234375  55.42252604166667 6.15234375  C 55.823133680555564 6.15234375  56.20833333333333 6.304253472222219  56.578125 6.608072916666664  C 60.55338541666667 10.223524305555555  63.095703125 12.805989583333336  64.205078125 14.35546875  C 64.42078993055556 14.598524305555555  64.52864583333333 14.932725694444438  64.52864583333333 15.358072916666664  C 64.52864583333333 15.72265625  64.40538194444446 16.0720486111111  64.15885416666667 16.40625  C 63.69661458333333 17.044270833333336  62.91080729166667 18.0544704861111  61.80143229166667 19.436848958333336  C 60.69205729166667 20.819227430555554  59.86002604166667 21.890190972222218  59.30533854166667 22.649739583333336  C 60.10655381944446 24.168836805555554  60.73828125 25.65755208333333  61.20052083333333 27.115885416666664  L 69.65950520833333 28.391927083333336  C 70.06011284722223 28.452690972222218  70.38368055555556 28.642578124999993  70.63020833333333 28.961588541666664  Z " fill-rule="evenodd" />
    </mask>
  </defs>
  <g transform="matrix(1 0 0 1 -1788 -1298 )">
    <path d="M 43.86653645833333 43.24869791666667  C 46.177734375 40.97005208333333  47.33333333333333 38.22048611111111  47.33333333333333 35  C 47.33333333333333 31.779513888888882  46.177734375 29.029947916666664  43.86653645833333 26.751302083333336  C 41.55533854166667 24.47265625  38.766493055555564 23.333333333333336  35.5 23.333333333333336  C 32.23350694444444 23.333333333333336  29.444661458333336 24.47265625  27.133463541666664 26.751302083333336  C 24.822265625 29.029947916666664  23.666666666666664 31.779513888888882  23.666666666666664 35  C 23.666666666666664 38.22048611111111  24.822265625 40.97005208333333  27.133463541666664 43.24869791666667  C 29.444661458333336 45.52734375  32.23350694444444 46.66666666666667  35.5 46.66666666666667  C 38.766493055555564 46.66666666666667  41.55533854166667 45.52734375  43.86653645833333 43.24869791666667  Z M 70.63020833333333 28.961588541666664  C 70.87673611111111 29.280598958333336  71 29.637586805555554  71 30.032552083333336  L 71 40.14973958333333  C 71 40.51432291666667  70.87673611111111 40.86371527777778  70.63020833333333 41.19791666666667  C 70.38368055555556 41.53211805555555  70.07552083333333 41.729600694444436  69.70572916666667 41.79036458333333  L 61.154296875 43.06640625  C 60.568793402777786 44.70703125  59.96788194444446 46.08940972222222  59.3515625 47.21354166666667  C 60.430121527777786 48.73263888888889  62.07877604166667 50.82899305555555  64.29752604166667 53.502604166666664  C 64.60568576388889 53.8671875  64.759765625 54.24696180555556  64.759765625 54.641927083333336  C 64.759765625 55.036892361111114  64.62109375 55.38628472222222  64.34375 55.690104166666664  C 63.51171875 56.814236111111114  61.986328125 58.454861111111114  59.767578125 60.611979166666664  C 57.548828125 62.76909722222222  56.100477430555564 63.84765625  55.42252604166667 63.84765625  C 55.052734375 63.84765625  54.652126736111114 63.7109375  54.220703125 63.4375  L 47.841796875 58.515625  C 46.48589409722222 59.21440972222222  45.083767361111114 59.791666666666664  43.63541666666667 60.247395833333336  C 43.142361111111114 64.37934027777779  42.69552951388889 67.20486111111111  42.294921875 68.72395833333334  C 42.07921006944444 69.57465277777779  41.52452256944444 70  40.630859375 70  L 30.369140625 70  C 29.937717013888893 70  29.560221354166664 69.87087673611111  29.236653645833336 69.61263020833334  C 28.9130859375 69.35438368055556  28.73589409722223 69.02777777777779  28.705078125 68.6328125  L 27.410807291666664 60.247395833333336  C 25.900824652777782 59.76128472222222  24.514105902777782 59.19921875  23.250651041666664 58.561197916666664  L 16.733072916666668 63.4375  C 16.424913194444446 63.7109375  16.039713541666668 63.84765625  15.577473958333332 63.84765625  C 15.146050347222223 63.84765625  14.760850694444446 63.68055555555556  14.421875 63.346354166666664  C 10.5390625 59.8828125  7.996744791666666 57.330729166666664  6.794921875 55.690104166666664  C 6.5792100694444455 55.38628472222222  6.471354166666666 55.036892361111114  6.471354166666666 54.641927083333336  C 6.471354166666666 54.27734375  6.594618055555557 53.927951388888886  6.841145833333334 53.59375  C 7.303385416666666 52.955729166666664  8.089192708333334 51.94552951388889  9.198567708333332 50.56315104166667  C 10.307942708333332 49.180772569444436  11.139973958333332 48.109809027777764  11.694661458333332 47.35026041666667  C 10.862630208333332 45.831163194444436  10.230902777777779 44.327256944444436  9.799479166666668 42.83854166666667  L 1.3404947916666665 41.60807291666667  C 0.9398871527777779 41.54730902777778  0.6163194444444444 41.357421875  0.36979166666666663 41.03841145833333  C 0.12326388888888888 40.71940104166667  0 40.362413194444436  0 39.96744791666667  L 0 29.850260416666664  C 0 29.485677083333336  0.12326388888888888 29.136284722222218  0.36979166666666663 28.802083333333336  C 0.6163194444444444 28.467881944444446  0.9090711805555557 28.270399305555554  1.248046875 28.209635416666664  L 9.845703125 26.93359375  C 10.27712673611111 25.536024305555554  10.878038194444445 24.13845486111111  11.6484375 22.740885416666664  C 10.41579861111111 21.009114583333336  8.767144097222223 18.912760416666664  6.702473958333334 16.451822916666664  C 6.394314236111112 16.087239583333336  6.240234375 15.72265625  6.240234375 15.358072916666664  C 6.240234375 15.054253472222218  6.37890625 14.704861111111102  6.65625 14.309895833333336  C 7.457465277777778 13.216145833333336  8.975151909722223 11.583116319444438  11.209309895833332 9.410807291666664  C 13.443467881944446 7.238498263888883  14.899522569444446 6.15234375  15.577473958333332 6.15234375  C 15.978081597222223 6.15234375  16.378689236111114 6.304253472222219  16.779296875 6.608072916666664  L 23.158203125 11.484375  C 24.514105902777782 10.785590277777773  25.916232638888893 10.208333333333336  27.364583333333336 9.752604166666664  C 27.857638888888893 5.620659722222219  28.30447048611111 2.795138888888883  28.705078125 1.276041666666664  C 28.920789930555557 0.42534722222221877  29.475477430555557 0  30.369140625 0  L 40.630859375 0  C 41.062282986111114 0  41.43977864583333 0.12912326388888284  41.76334635416667 0.3873697916666641  C 42.0869140625 0.6456163194444375  42.26410590277778 0.9722222222222188  42.294921875 1.3671875  L 43.58919270833333 9.752604166666664  C 45.09917534722222 10.238715277777773  46.48589409722222 10.80078125  47.74934895833333 11.438802083333336  L 54.31315104166667 6.5625  C 54.59049479166667 6.2890625  54.96028645833333 6.15234375  55.42252604166667 6.15234375  C 55.823133680555564 6.15234375  56.20833333333333 6.304253472222219  56.578125 6.608072916666664  C 60.55338541666667 10.223524305555555  63.095703125 12.805989583333336  64.205078125 14.35546875  C 64.42078993055556 14.598524305555555  64.52864583333333 14.932725694444438  64.52864583333333 15.358072916666664  C 64.52864583333333 15.72265625  64.40538194444446 16.0720486111111  64.15885416666667 16.40625  C 63.69661458333333 17.044270833333336  62.91080729166667 18.0544704861111  61.80143229166667 19.436848958333336  C 60.69205729166667 20.819227430555554  59.86002604166667 21.890190972222218  59.30533854166667 22.649739583333336  C 60.10655381944446 24.168836805555554  60.73828125 25.65755208333333  61.20052083333333 27.115885416666664  L 69.65950520833333 28.391927083333336  C 70.06011284722223 28.452690972222218  70.38368055555556 28.642578124999993  70.63020833333333 28.961588541666664  Z " fill-rule="nonzero" fill="rgba(1, 30, 65, 1)" stroke="none" transform="matrix(1 0 0 1 1788 1298 )" class="fill" />
    <path d="M 43.86653645833333 43.24869791666667  C 46.177734375 40.97005208333333  47.33333333333333 38.22048611111111  47.33333333333333 35  C 47.33333333333333 31.779513888888882  46.177734375 29.029947916666664  43.86653645833333 26.751302083333336  C 41.55533854166667 24.47265625  38.766493055555564 23.333333333333336  35.5 23.333333333333336  C 32.23350694444444 23.333333333333336  29.444661458333336 24.47265625  27.133463541666664 26.751302083333336  C 24.822265625 29.029947916666664  23.666666666666664 31.779513888888882  23.666666666666664 35  C 23.666666666666664 38.22048611111111  24.822265625 40.97005208333333  27.133463541666664 43.24869791666667  C 29.444661458333336 45.52734375  32.23350694444444 46.66666666666667  35.5 46.66666666666667  C 38.766493055555564 46.66666666666667  41.55533854166667 45.52734375  43.86653645833333 43.24869791666667  Z " stroke-width="0" stroke-dasharray="0" stroke="rgba(255, 255, 255, 0)" fill="none" transform="matrix(1 0 0 1 1788 1298 )" class="stroke" mask="url(#Clip16)" />
    <path d="M 70.63020833333333 28.961588541666664  C 70.87673611111111 29.280598958333336  71 29.637586805555554  71 30.032552083333336  L 71 40.14973958333333  C 71 40.51432291666667  70.87673611111111 40.86371527777778  70.63020833333333 41.19791666666667  C 70.38368055555556 41.53211805555555  70.07552083333333 41.729600694444436  69.70572916666667 41.79036458333333  L 61.154296875 43.06640625  C 60.568793402777786 44.70703125  59.96788194444446 46.08940972222222  59.3515625 47.21354166666667  C 60.430121527777786 48.73263888888889  62.07877604166667 50.82899305555555  64.29752604166667 53.502604166666664  C 64.60568576388889 53.8671875  64.759765625 54.24696180555556  64.759765625 54.641927083333336  C 64.759765625 55.036892361111114  64.62109375 55.38628472222222  64.34375 55.690104166666664  C 63.51171875 56.814236111111114  61.986328125 58.454861111111114  59.767578125 60.611979166666664  C 57.548828125 62.76909722222222  56.100477430555564 63.84765625  55.42252604166667 63.84765625  C 55.052734375 63.84765625  54.652126736111114 63.7109375  54.220703125 63.4375  L 47.841796875 58.515625  C 46.48589409722222 59.21440972222222  45.083767361111114 59.791666666666664  43.63541666666667 60.247395833333336  C 43.142361111111114 64.37934027777779  42.69552951388889 67.20486111111111  42.294921875 68.72395833333334  C 42.07921006944444 69.57465277777779  41.52452256944444 70  40.630859375 70  L 30.369140625 70  C 29.937717013888893 70  29.560221354166664 69.87087673611111  29.236653645833336 69.61263020833334  C 28.9130859375 69.35438368055556  28.73589409722223 69.02777777777779  28.705078125 68.6328125  L 27.410807291666664 60.247395833333336  C 25.900824652777782 59.76128472222222  24.514105902777782 59.19921875  23.250651041666664 58.561197916666664  L 16.733072916666668 63.4375  C 16.424913194444446 63.7109375  16.039713541666668 63.84765625  15.577473958333332 63.84765625  C 15.146050347222223 63.84765625  14.760850694444446 63.68055555555556  14.421875 63.346354166666664  C 10.5390625 59.8828125  7.996744791666666 57.330729166666664  6.794921875 55.690104166666664  C 6.5792100694444455 55.38628472222222  6.471354166666666 55.036892361111114  6.471354166666666 54.641927083333336  C 6.471354166666666 54.27734375  6.594618055555557 53.927951388888886  6.841145833333334 53.59375  C 7.303385416666666 52.955729166666664  8.089192708333334 51.94552951388889  9.198567708333332 50.56315104166667  C 10.307942708333332 49.180772569444436  11.139973958333332 48.109809027777764  11.694661458333332 47.35026041666667  C 10.862630208333332 45.831163194444436  10.230902777777779 44.327256944444436  9.799479166666668 42.83854166666667  L 1.3404947916666665 41.60807291666667  C 0.9398871527777779 41.54730902777778  0.6163194444444444 41.357421875  0.36979166666666663 41.03841145833333  C 0.12326388888888888 40.71940104166667  0 40.362413194444436  0 39.96744791666667  L 0 29.850260416666664  C 0 29.485677083333336  0.12326388888888888 29.136284722222218  0.36979166666666663 28.802083333333336  C 0.6163194444444444 28.467881944444446  0.9090711805555557 28.270399305555554  1.248046875 28.209635416666664  L 9.845703125 26.93359375  C 10.27712673611111 25.536024305555554  10.878038194444445 24.13845486111111  11.6484375 22.740885416666664  C 10.41579861111111 21.009114583333336  8.767144097222223 18.912760416666664  6.702473958333334 16.451822916666664  C 6.394314236111112 16.087239583333336  6.240234375 15.72265625  6.240234375 15.358072916666664  C 6.240234375 15.054253472222218  6.37890625 14.704861111111102  6.65625 14.309895833333336  C 7.457465277777778 13.216145833333336  8.975151909722223 11.583116319444438  11.209309895833332 9.410807291666664  C 13.443467881944446 7.238498263888883  14.899522569444446 6.15234375  15.577473958333332 6.15234375  C 15.978081597222223 6.15234375  16.378689236111114 6.304253472222219  16.779296875 6.608072916666664  L 23.158203125 11.484375  C 24.514105902777782 10.785590277777773  25.916232638888893 10.208333333333336  27.364583333333336 9.752604166666664  C 27.857638888888893 5.620659722222219  28.30447048611111 2.795138888888883  28.705078125 1.276041666666664  C 28.920789930555557 0.42534722222221877  29.475477430555557 0  30.369140625 0  L 40.630859375 0  C 41.062282986111114 0  41.43977864583333 0.12912326388888284  41.76334635416667 0.3873697916666641  C 42.0869140625 0.6456163194444375  42.26410590277778 0.9722222222222188  42.294921875 1.3671875  L 43.58919270833333 9.752604166666664  C 45.09917534722222 10.238715277777773  46.48589409722222 10.80078125  47.74934895833333 11.438802083333336  L 54.31315104166667 6.5625  C 54.59049479166667 6.2890625  54.96028645833333 6.15234375  55.42252604166667 6.15234375  C 55.823133680555564 6.15234375  56.20833333333333 6.304253472222219  56.578125 6.608072916666664  C 60.55338541666667 10.223524305555555  63.095703125 12.805989583333336  64.205078125 14.35546875  C 64.42078993055556 14.598524305555555  64.52864583333333 14.932725694444438  64.52864583333333 15.358072916666664  C 64.52864583333333 15.72265625  64.40538194444446 16.0720486111111  64.15885416666667 16.40625  C 63.69661458333333 17.044270833333336  62.91080729166667 18.0544704861111  61.80143229166667 19.436848958333336  C 60.69205729166667 20.819227430555554  59.86002604166667 21.890190972222218  59.30533854166667 22.649739583333336  C 60.10655381944446 24.168836805555554  60.73828125 25.65755208333333  61.20052083333333 27.115885416666664  L 69.65950520833333 28.391927083333336  C 70.06011284722223 28.452690972222218  70.38368055555556 28.642578124999993  70.63020833333333 28.961588541666664  Z " stroke-width="0" stroke-dasharray="0" stroke="rgba(255, 255, 255, 0)" fill="none" transform="matrix(1 0 0 1 1788 1298 )" class="stroke" mask="url(#Clip16)" />
  </g>
</svg>