<?xml version="1.0" encoding="utf-8"?>
<svg version="1.1" xmlns:xlink="http://www.w3.org/1999/xlink" width="39px" height="48px" xmlns="http://www.w3.org/2000/svg">
  <defs>
    <pattern id="BGPattern" patternUnits="userSpaceOnUse" alignment="0 0" imageRepeat="None" />
    <mask fill="white" id="Clip17">
      <path d="M 6.590099009900991 43.94455445544554  L 9.344554455445545 43.94455445544554  L 11.687128712871287 41.06138613861386  L 5.637623762376237 33.61584158415842  L 3.2950495049504953 36.4990099009901  L 3.2950495049504953 39.88910891089109  L 6.590099009900991 39.88910891089109  L 6.590099009900991 43.94455445544554  Z M 22.627722772277227 15.08118811881188  C 22.747854785478548 14.933333333333334  22.80792079207921 14.753795379537952  22.80792079207921 14.542574257425745  C 22.80792079207921 14.077887788778877  22.61914191419142 13.845544554455444  22.24158415841584 13.845544554455444  C 22.069966996699673 13.845544554455444  21.924092409240927 13.919471947194717  21.803960396039603 14.06732673267327  L 7.851485148514851 31.239603960396042  C 7.731353135313532 31.387458745874582  7.671287128712871 31.56699669966996  7.671287128712871 31.778217821782178  C 7.671287128712871 32.24290429042904  7.860066006600661 32.475247524752476  8.237623762376238 32.475247524752476  C 8.40924092409241 32.475247524752476  8.555115511551156 32.4013201320132  8.675247524752475 32.253465346534654  L 22.627722772277227 15.08118811881188  Z M 0 34.81980198019802  L 21.41782178217822 8.459405940594062  L 32.12673267326733 21.639603960396038  L 10.70891089108911 48  L 0 48  L 0 34.81980198019802  Z M 38.04752475247525 8.617821782178217  C 38.68250825082509 9.441584158415843  39 10.402640264026402  39 11.5009900990099  C 39 12.62046204620462  38.68250825082509 13.570957095709566  38.04752475247525 14.352475247524755  L 33.774257425742576 19.61188118811881  L 23.065346534653465 6.431683168316834  L 27.338613861386136 1.2039603960396015  C 27.956435643564355 0.40132013201319694  28.72871287128713 0  29.655445544554457 0  C 30.56501650165017 0  31.34587458745875 0.40132013201319694  31.9980198019802 1.2039603960396015  L 38.04752475247525 8.617821782178217  Z " fill-rule="evenodd" />
    </mask>
  </defs>
  <g transform="matrix(1 0 0 1 -686 -651 )">
    <path d="M 6.590099009900991 43.94455445544554  L 9.344554455445545 43.94455445544554  L 11.687128712871287 41.06138613861386  L 5.637623762376237 33.61584158415842  L 3.2950495049504953 36.4990099009901  L 3.2950495049504953 39.88910891089109  L 6.590099009900991 39.88910891089109  L 6.590099009900991 43.94455445544554  Z M 22.627722772277227 15.08118811881188  C 22.747854785478548 14.933333333333334  22.80792079207921 14.753795379537952  22.80792079207921 14.542574257425745  C 22.80792079207921 14.077887788778877  22.61914191419142 13.845544554455444  22.24158415841584 13.845544554455444  C 22.069966996699673 13.845544554455444  21.924092409240927 13.919471947194717  21.803960396039603 14.06732673267327  L 7.851485148514851 31.239603960396042  C 7.731353135313532 31.387458745874582  7.671287128712871 31.56699669966996  7.671287128712871 31.778217821782178  C 7.671287128712871 32.24290429042904  7.860066006600661 32.475247524752476  8.237623762376238 32.475247524752476  C 8.40924092409241 32.475247524752476  8.555115511551156 32.4013201320132  8.675247524752475 32.253465346534654  L 22.627722772277227 15.08118811881188  Z M 0 34.81980198019802  L 21.41782178217822 8.459405940594062  L 32.12673267326733 21.639603960396038  L 10.70891089108911 48  L 0 48  L 0 34.81980198019802  Z M 38.04752475247525 8.617821782178217  C 38.68250825082509 9.441584158415843  39 10.402640264026402  39 11.5009900990099  C 39 12.62046204620462  38.68250825082509 13.570957095709566  38.04752475247525 14.352475247524755  L 33.774257425742576 19.61188118811881  L 23.065346534653465 6.431683168316834  L 27.338613861386136 1.2039603960396015  C 27.956435643564355 0.40132013201319694  28.72871287128713 0  29.655445544554457 0  C 30.56501650165017 0  31.34587458745875 0.40132013201319694  31.9980198019802 1.2039603960396015  L 38.04752475247525 8.617821782178217  Z " fill-rule="nonzero" fill="rgba(1, 30, 65, 1)" stroke="none" transform="matrix(1 0 0 1 686 651 )" class="fill" />
    <path d="M 6.590099009900991 43.94455445544554  L 9.344554455445545 43.94455445544554  L 11.687128712871287 41.06138613861386  L 5.637623762376237 33.61584158415842  L 3.2950495049504953 36.4990099009901  L 3.2950495049504953 39.88910891089109  L 6.590099009900991 39.88910891089109  L 6.590099009900991 43.94455445544554  Z " stroke-width="0" stroke-dasharray="0" stroke="rgba(255, 255, 255, 0)" fill="none" transform="matrix(1 0 0 1 686 651 )" class="stroke" mask="url(#Clip17)" />
    <path d="M 22.627722772277227 15.08118811881188  C 22.747854785478548 14.933333333333334  22.80792079207921 14.753795379537952  22.80792079207921 14.542574257425745  C 22.80792079207921 14.077887788778877  22.61914191419142 13.845544554455444  22.24158415841584 13.845544554455444  C 22.069966996699673 13.845544554455444  21.924092409240927 13.919471947194717  21.803960396039603 14.06732673267327  L 7.851485148514851 31.239603960396042  C 7.731353135313532 31.387458745874582  7.671287128712871 31.56699669966996  7.671287128712871 31.778217821782178  C 7.671287128712871 32.24290429042904  7.860066006600661 32.475247524752476  8.237623762376238 32.475247524752476  C 8.40924092409241 32.475247524752476  8.555115511551156 32.4013201320132  8.675247524752475 32.253465346534654  L 22.627722772277227 15.08118811881188  Z " stroke-width="0" stroke-dasharray="0" stroke="rgba(255, 255, 255, 0)" fill="none" transform="matrix(1 0 0 1 686 651 )" class="stroke" mask="url(#Clip17)" />
    <path d="M 0 34.81980198019802  L 21.41782178217822 8.459405940594062  L 32.12673267326733 21.639603960396038  L 10.70891089108911 48  L 0 48  L 0 34.81980198019802  Z " stroke-width="0" stroke-dasharray="0" stroke="rgba(255, 255, 255, 0)" fill="none" transform="matrix(1 0 0 1 686 651 )" class="stroke" mask="url(#Clip17)" />
    <path d="M 38.04752475247525 8.617821782178217  C 38.68250825082509 9.441584158415843  39 10.402640264026402  39 11.5009900990099  C 39 12.62046204620462  38.68250825082509 13.570957095709566  38.04752475247525 14.352475247524755  L 33.774257425742576 19.61188118811881  L 23.065346534653465 6.431683168316834  L 27.338613861386136 1.2039603960396015  C 27.956435643564355 0.40132013201319694  28.72871287128713 0  29.655445544554457 0  C 30.56501650165017 0  31.34587458745875 0.40132013201319694  31.9980198019802 1.2039603960396015  L 38.04752475247525 8.617821782178217  Z " stroke-width="0" stroke-dasharray="0" stroke="rgba(255, 255, 255, 0)" fill="none" transform="matrix(1 0 0 1 686 651 )" class="stroke" mask="url(#Clip17)" />
  </g>
</svg>